<svg xmlns="http://www.w3.org/2000/svg" version="1.1" xmlns:xlink="http://www.w3.org/1999/xlink" viewBox="0 0 200 200"><rect width="200" height="200" fill="url('#gradient')"></rect><defs><linearGradient id="gradient" gradientTransform="rotate(44 0.5 0.5)"><stop offset="0%" stop-color="#0a0a0a"></stop><stop offset="100%" stop-color="#0a0a0a"></stop></linearGradient></defs><g><g fill="#ffffff" transform="matrix(1.4047535492104004,0,0,1.4047535492104004,13.507057846381642,109.98514878185843)" stroke="#000000" stroke-width="0"><path d="M6.74-4.46L6.74-14.22L10.16-14.22L10.16-4.46Q10.16-3.11 9.53-2.04Q8.90-0.98 7.77-0.39Q6.64 0.20 5.25 0.20L5.25 0.20Q2.93 0.20 1.64-0.98Q0.35-2.15 0.35-4.30L0.35-4.30L3.79-4.30Q3.79-3.32 4.13-2.88Q4.46-2.44 5.25-2.44L5.25-2.44Q5.97-2.44 6.35-2.97Q6.74-3.51 6.74-4.46L6.74-4.46ZM21.01 0L20.18-2.66L15.48-2.66L14.66 0L11.00 0L16.21-14.22L19.43-14.22L24.69 0L21.01 0ZM17.82-10.23L16.30-5.30L19.36-5.30L17.82-10.23ZM33.58 0L30.56-5.29L29.15-3.75L29.15 0L25.72 0L25.72-14.22L29.15-14.22L29.15-7.95L30.34-9.76L33.41-14.22L37.65-14.22L32.84-7.93L37.65 0L33.58 0ZM42.17-14.22L42.17 0L38.75 0L38.75-14.22L42.17-14.22ZM55.43-14.22L55.43-11.57L51.16-11.57L51.16 0L47.73 0L47.73-11.57L43.54-11.57L43.54-14.22L55.43-14.22ZM68.64-7.47L68.64-6.82Q68.64-4.74 67.87-3.13Q67.10-1.53 65.68-0.67Q64.26 0.20 62.44 0.20Q60.63 0.20 59.22-0.64Q57.81-1.47 57.03-3.03Q56.24-4.58 56.20-6.59L56.20-6.59L56.20-7.39Q56.20-9.48 56.97-11.08Q57.73-12.68 59.17-13.54Q60.60-14.41 62.42-14.41L62.42-14.41Q64.23-14.41 65.64-13.55Q67.06-12.70 67.85-11.11Q68.63-9.52 68.64-7.47L68.64-7.47ZM65.16-6.76L65.16-7.41Q65.16-9.53 64.45-10.63Q63.74-11.73 62.42-11.73L62.42-11.73Q59.84-11.73 59.70-7.86L59.70-7.86L59.69-6.82Q59.69-4.73 60.38-3.60Q61.07-2.48 62.44-2.48L62.44-2.48Q63.74-2.48 64.44-3.58Q65.15-4.69 65.16-6.76L65.16-6.76ZM79.44-14.22L81.43-5.30L83.06-14.22L86.46-14.22L83.44 0L79.88 0L77.98-8.11L76.11 0L72.57 0L69.54-14.22L72.95-14.22L74.58-5.30L76.53-14.22L79.44-14.22ZM96.61-8.57L96.61-6.03L91.22-6.03L91.22-2.64L97.59-2.64L97.59 0L87.79 0L87.79-14.22L97.61-14.22L97.61-11.57L91.22-11.57L91.22-8.57L96.61-8.57ZM106.78 0L104.27-5.02L102.41-5.02L102.41 0L98.98 0L98.98-14.22L104.58-14.22Q107.11-14.22 108.54-13.10Q109.96-11.97 109.96-9.92L109.96-9.92Q109.96-8.44 109.36-7.46Q108.76-6.48 107.48-5.88L107.48-5.88L110.45-0.15L110.45 0L106.78 0ZM102.41-11.57L102.41-7.67L104.58-7.67Q105.56-7.67 106.05-8.18Q106.54-8.69 106.54-9.61Q106.54-10.53 106.04-11.05Q105.55-11.57 104.58-11.57L104.58-11.57L102.41-11.57ZM119.37-3.78L119.37-3.78Q119.37-4.53 118.83-4.95Q118.30-5.37 116.96-5.82Q115.63-6.27 114.78-6.69L114.78-6.69Q112.01-8.05 112.01-10.42L112.01-10.42Q112.01-11.60 112.70-12.50Q113.39-13.41 114.65-13.91Q115.91-14.41 117.48-14.41L117.48-14.41Q119.01-14.41 120.23-13.87Q121.45-13.32 122.12-12.31Q122.79-11.30 122.79-10L122.79-10L119.38-10Q119.38-10.87 118.84-11.35Q118.31-11.83 117.40-11.83L117.40-11.83Q116.48-11.83 115.95-11.42Q115.42-11.02 115.42-10.39L115.42-10.39Q115.42-9.84 116.01-9.40Q116.59-8.96 118.07-8.48Q119.54-8.01 120.49-7.46L120.49-7.46Q122.79-6.13 122.79-3.80L122.79-3.80Q122.79-1.93 121.39-0.87Q119.98 0.20 117.53 0.20L117.53 0.20Q115.80 0.20 114.40-0.42Q113.00-1.04 112.29-2.12Q111.58-3.20 111.58-4.61L111.58-4.61L115.02-4.61Q115.02-3.47 115.61-2.92Q116.20-2.38 117.53-2.38L117.53-2.38Q118.38-2.38 118.87-2.75Q119.37-3.12 119.37-3.78Z"></path></g></g></svg>